<?xml version="1.0" encoding="UTF-8" standalone="no"?>
<svg
   width="206"
   height="70"
   viewBox="0 0 206 70"
   fill="none"
   version="1.1"
   id="svg55"
   sodipodi:docname="logo_cs_01.svg"
   inkscape:version="1.1 (c68e22c387, 2021-05-23)"
   xmlns:inkscape="http://www.inkscape.org/namespaces/inkscape"
   xmlns:sodipodi="http://sodipodi.sourceforge.net/DTD/sodipodi-0.dtd"
   xmlns="http://www.w3.org/2000/svg"
   xmlns:svg="http://www.w3.org/2000/svg">
  <sodipodi:namedview
     id="namedview57"
     pagecolor="#ffffff"
     bordercolor="#666666"
     borderopacity="1.0"
     inkscape:pageshadow="2"
     inkscape:pageopacity="0.0"
     inkscape:pagecheckerboard="0"
     showgrid="false"
     inkscape:snap-smooth-nodes="false"
     inkscape:zoom="3.2376245"
     inkscape:cx="69.649832"
     inkscape:cy="65.171239"
     inkscape:window-width="1280"
     inkscape:window-height="968"
     inkscape:window-x="-4"
     inkscape:window-y="-4"
     inkscape:window-maximized="1"
     inkscape:current-layer="svg55" />
  <g
     filter="url(#filter0_d)"
     id="g36"
     transform="translate(-52.816502,-73.201819)">
    <path
       d="m 36.394,19.648 c 0.096,0.544 0.16,0.928 0.192,1.152 0.064,0.192 0.096,0.464 0.096,0.816 0,1.056 -0.24,2.048 -0.72,2.976 -0.448,0.896 -1.072,1.536 -1.872,1.92 -0.64,-0.864 -1.424,-1.6 -2.352,-2.208 -0.928,-0.64 -1.952,-1.152 -3.072,-1.536 -1.088,-0.416 -2.224,-0.72 -3.408,-0.912 -1.184,-0.192 -2.336,-0.288 -3.456,-0.288 -1.12,0 -2.176,0.096 -3.168,0.288 -0.96,0.16 -1.824,0.4 -2.592,0.72 -0.736,0.288 -1.328,0.656 -1.776,1.104 -0.416,0.448 -0.624,0.96 -0.624,1.536 0.096,0.704 0.528,1.424 1.296,2.16 0.768,0.704 1.712,1.408 2.832,2.112 1.12,0.672 2.352,1.344 3.696,2.016 1.376,0.672 2.72,1.312 4.032,1.92 1.632,0.768 3.04,1.488 4.224,2.16 1.184,0.64 2.16,1.36 2.928,2.16 0.768,0.768 1.344,1.648 1.728,2.64 0.384,0.992 0.576,2.192 0.576,3.6 0,1.632 -0.272,3.168 -0.816,4.608 -0.544,1.408 -1.344,2.64 -2.4,3.696 -1.024,1.056 -2.272,1.872 -3.744,2.448 -1.472,0.608 -3.12,0.912 -4.944,0.912 -1.792,0 -3.728,-0.272 -5.808,-0.816 C 15.162,54.288 13.21,53.536 11.386,52.576 9.594,51.648 8.09,50.576 6.874,49.36 5.69,48.112 5.098,46.8 5.098,45.424 c 0,-0.64 0.176,-1.456 0.528,-2.448 0.384,-0.992 1.056,-2.032 2.016,-3.12 0.096,0.96 0.608,2.096 1.536,3.408 0.96,1.312 2.384,2.528 4.272,3.648 1.76,1.024 3.568,1.776 5.424,2.256 1.888,0.448 3.648,0.672 5.28,0.672 1.792,0 3.248,-0.224 4.368,-0.672 1.12,-0.448 2,-0.976 2.64,-1.584 0.64,-0.64 1.088,-1.28 1.344,-1.92 0.256,-0.64 0.4,-1.152 0.432,-1.536 C 32.906,43.488 32.602,42.88 32.026,42.304 31.482,41.696 30.73,41.12 29.77,40.576 28.842,40 27.754,39.424 26.506,38.848 25.258,38.272 23.962,37.696 22.618,37.12 c -2.016,-0.896 -3.76,-1.728 -5.232,-2.496 -1.44,-0.8 -2.64,-1.6 -3.6,-2.4 -0.928,-0.832 -1.616,-1.696 -2.064,-2.592 -0.416,-0.896 -0.624,-1.92 -0.624,-3.072 0,-1.792 0.544,-3.488 1.632,-5.088 1.088,-1.6 2.656,-2.816 4.704,-3.648 1.024,-0.448 2.112,-0.768 3.264,-0.96 1.184,-0.192 2.336,-0.288 3.456,-0.288 2.112,0 4.176,0.288 6.192,0.864 2.016,0.576 4.032,1.312 6.048,2.208 z m 19.3991,12.48 c -0.128,1.984 -0.48,3.696 -1.056,5.136 -0.576,1.408 -1.408,2.656 -2.496,3.744 -1.056,1.056 -2.352,2.016 -3.888,2.88 -1.536,0.864 -3.328,1.696 -5.376,2.496 0,0.192 -0.016,0.4 -0.048,0.624 0,0.192 0,0.4 0,0.624 0,0.416 0.032,0.848 0.096,1.296 0.064,0.448 0.176,0.864 0.336,1.248 0.16,0.384 0.384,0.704 0.672,0.96 0.288,0.224 0.656,0.336 1.104,0.336 0.864,0 1.712,-0.192 2.544,-0.576 0.832,-0.384 1.616,-0.848 2.352,-1.392 0.768,-0.576 1.472,-1.184 2.112,-1.824 0.672,-0.672 1.264,-1.28 1.776,-1.824 0.32,0.288 0.592,0.56 0.816,0.816 -1.44,1.92 -3.024,3.52 -4.752,4.8 -1.696,1.248 -3.312,2.048 -4.848,2.4 -2.208,-0.256 -3.936,-1.056 -5.184,-2.4 -1.216,-1.376 -1.824,-3.024 -1.824,-4.944 0,-1.312 0.176,-2.64 0.528,-3.984 0.384,-1.376 0.896,-2.688 1.536,-3.936 0.672,-1.28 1.44,-2.48 2.304,-3.6 0.896,-1.12 1.84,-2.096 2.832,-2.928 1.024,-0.832 2.064,-1.488 3.12,-1.968 1.088,-0.48 2.16,-0.72 3.216,-0.72 1.472,0.192 2.848,1.104 4.128,2.736 z m -3.312,1.584 c -0.864,0.128 -1.76,0.48 -2.688,1.056 -0.928,0.576 -1.808,1.344 -2.64,2.304 -0.8,0.96 -1.536,2.08 -2.208,3.36 -0.672,1.28 -1.2,2.656 -1.584,4.128 2.56,-1.28 4.688,-2.848 6.384,-4.704 1.696,-1.888 2.608,-3.936 2.736,-6.144 z m 4.3823,17.328 c 0.16,-0.928 0.432,-2.144 0.816,-3.648 0.416,-1.536 0.896,-3.152 1.44,-4.848 0.544,-1.728 1.12,-3.456 1.728,-5.184 0.608,-1.728 1.2,-3.28 1.776,-4.656 0.416,-0.992 0.784,-1.76 1.104,-2.304 0.32,-0.576 0.672,-1.056 1.056,-1.44 0.448,0.064 0.912,0.176 1.392,0.336 0.48,0.16 0.944,0.352 1.392,0.576 0.448,0.224 0.848,0.464 1.2,0.72 0.352,0.224 0.624,0.448 0.816,0.672 -0.864,1.024 -1.632,2.192 -2.304,3.504 -0.64,1.312 -1.296,2.992 -1.968,5.04 1.728,-1.536 3.248,-3.008 4.56,-4.416 1.344,-1.408 2.592,-2.976 3.744,-4.704 0.192,-0.16 0.528,-0.24 1.008,-0.24 0.448,0 0.88,0.08 1.296,0.24 0.416,0.128 0.704,0.32 0.864,0.576 -0.576,1.536 -0.864,3.056 -0.864,4.56 0,1.408 0.208,2.464 0.624,3.168 -0.032,0.192 -0.256,0.56 -0.672,1.104 -0.384,0.544 -0.816,1.056 -1.296,1.536 -0.864,-0.448 -1.632,-1.056 -2.304,-1.824 -0.672,-0.8 -1.168,-1.664 -1.488,-2.592 -1.504,1.056 -2.784,2.096 -3.84,3.12 -1.056,0.992 -1.968,2.112 -2.736,3.36 -0.736,1.216 -1.376,2.624 -1.92,4.224 -0.512,1.6 -1.008,3.504 -1.488,5.712 -0.288,-0.032 -0.64,-0.144 -1.056,-0.336 -0.384,-0.16 -0.784,-0.368 -1.2,-0.624 -0.384,-0.256 -0.736,-0.528 -1.056,-0.816 -0.32,-0.288 -0.528,-0.56 -0.624,-0.816 z M 80.0148,35.008 c 0,-0.576 0.032,-1.12 0.096,-1.632 0.096,-0.512 0.272,-0.944 0.528,-1.296 0.256,-0.384 0.608,-0.672 1.056,-0.864 0.448,-0.224 1.04,-0.336 1.776,-0.336 0.448,0 0.944,0.048 1.488,0.144 0.576,0.096 0.992,0.272 1.248,0.528 -0.128,0.544 -0.24,1.024 -0.336,1.44 -0.064,0.416 -0.128,0.88 -0.192,1.392 -0.032,0.48 -0.064,1.072 -0.096,1.776 -0.032,0.672 -0.064,1.552 -0.096,2.64 -0.0641,2.176 -0.176,4.128 -0.336,5.856 -0.128,1.696 -0.448,3.392 -0.96,5.088 0,0.128 0.048,0.192 0.144,0.192 0.48,-0.352 1.024,-0.864 1.632,-1.536 0.608,-0.672 1.248,-1.424 1.92,-2.256 0.672,-0.864 1.344,-1.776 2.016,-2.736 0.672,-0.96 1.296,-1.904 1.872,-2.832 0.768,-1.344 1.616,-3.024 2.544,-5.04 0.928,-2.016 1.696,-4.176 2.304,-6.48 0.192,0 0.432,0.048 0.72,0.144 0.32,0.064 0.624,0.16 0.912,0.288 0.32,0.096 0.592,0.208 0.816,0.336 0.256,0.128 0.432,0.24 0.528,0.336 -0.064,1.376 -0.4,2.784 -1.008,4.224 -0.576,1.44 -1.28,2.832 -2.112,4.176 -0.832,1.344 -1.712,2.608 -2.64,3.792 -0.928,1.184 -1.776,2.208 -2.544,3.072 -1.536,1.792 -3.088,3.392 -4.656,4.8 -1.536,1.408 -3.376,2.768 -5.52,4.08 -0.832,-0.32 -1.488,-0.752 -1.968,-1.296 -0.48,-0.512 -0.72,-1.056 -0.72,-1.632 0,-0.384 0.08,-0.816 0.24,-1.296 0.192,-0.512 0.4,-1.152 0.624,-1.92 0.224,-0.8 0.416,-1.792 0.576,-2.976 0.192,-1.184 0.288,-2.688 0.288,-4.512 0,-1.056 -0.032,-2.112 -0.096,-3.168 -0.032,-1.088 -0.048,-1.92 -0.048,-2.496 z m 36.0592,-2.88 c -0.128,1.984 -0.48,3.696 -1.056,5.136 -0.576,1.408 -1.408,2.656 -2.496,3.744 -1.056,1.056 -2.352,2.016 -3.888,2.88 -1.536,0.864 -3.328,1.696 -5.376,2.496 0,0.192 -0.016,0.4 -0.048,0.624 0,0.192 0,0.4 0,0.624 0,0.416 0.032,0.848 0.096,1.296 0.064,0.448 0.176,0.864 0.336,1.248 0.16,0.384 0.384,0.704 0.672,0.96 0.288,0.224 0.656,0.336 1.104,0.336 0.864,0 1.712,-0.192 2.544,-0.576 0.832,-0.384 1.616,-0.848 2.352,-1.392 0.768,-0.576 1.472,-1.184 2.112,-1.824 0.672,-0.672 1.264,-1.28 1.776,-1.824 0.32,0.288 0.592,0.56 0.816,0.816 -1.44,1.92 -3.024,3.52 -4.752,4.8 -1.696,1.248 -3.312,2.048 -4.848,2.4 -2.208,-0.256 -3.936,-1.056 -5.184,-2.4 -1.2156,-1.376 -1.8236,-3.024 -1.8236,-4.944 0,-1.312 0.176,-2.64 0.528,-3.984 0.384,-1.376 0.896,-2.688 1.5356,-3.936 0.672,-1.28 1.44,-2.48 2.304,-3.6 0.896,-1.12 1.84,-2.096 2.832,-2.928 1.024,-0.832 2.064,-1.488 3.12,-1.968 1.088,-0.48 2.16,-0.72 3.216,-0.72 1.472,0.192 2.848,1.104 4.128,2.736 z m -3.312,1.584 c -0.864,0.128 -1.76,0.48 -2.688,1.056 -0.928,0.576 -1.808,1.344 -2.64,2.304 -0.8,0.96 -1.536,2.08 -2.208,3.36 -0.672,1.28 -1.2,2.656 -1.584,4.128 2.56,-1.28 4.688,-2.848 6.384,-4.704 1.696,-1.888 2.608,-3.936 2.736,-6.144 z m 4.383,17.328 c 0.16,-0.928 0.432,-2.144 0.816,-3.648 0.416,-1.536 0.896,-3.152 1.44,-4.848 0.544,-1.728 1.12,-3.456 1.728,-5.184 0.608,-1.728 1.2,-3.28 1.776,-4.656 0.416,-0.992 0.784,-1.76 1.104,-2.304 0.32,-0.576 0.672,-1.056 1.056,-1.44 0.448,0.064 0.912,0.176 1.392,0.336 0.48,0.16 0.944,0.352 1.392,0.576 0.448,0.224 0.848,0.464 1.2,0.72 0.352,0.224 0.624,0.448 0.816,0.672 -0.864,1.024 -1.632,2.192 -2.304,3.504 -0.64,1.312 -1.296,2.992 -1.968,5.04 1.728,-1.536 3.248,-3.008 4.56,-4.416 1.344,-1.408 2.592,-2.976 3.744,-4.704 0.192,-0.16 0.528,-0.24 1.008,-0.24 0.448,0 0.88,0.08 1.296,0.24 0.416,0.128 0.704,0.32 0.864,0.576 -0.576,1.536 -0.864,3.056 -0.864,4.56 0,1.408 0.208,2.464 0.624,3.168 -0.032,0.192 -0.256,0.56 -0.672,1.104 -0.384,0.544 -0.816,1.056 -1.296,1.536 -0.864,-0.448 -1.632,-1.056 -2.304,-1.824 -0.672,-0.8 -1.168,-1.664 -1.488,-2.592 -1.504,1.056 -2.784,2.096 -3.84,3.12 -1.056,0.992 -1.968,2.112 -2.736,3.36 -0.736,1.216 -1.376,2.624 -1.92,4.224 -0.512,1.6 -1.008,3.504 -1.488,5.712 -0.288,-0.032 -0.64,-0.144 -1.056,-0.336 -0.384,-0.16 -0.784,-0.368 -1.2,-0.624 -0.384,-0.256 -0.736,-0.528 -1.056,-0.816 -0.32,-0.288 -0.528,-0.56 -0.624,-0.816 z m 20.463,-2.112 c 0,-1.408 0.336,-3.376 1.008,-5.904 0.672,-2.56 1.616,-5.536 2.832,-8.928 1.984,-5.408 3.84,-9.904 5.568,-13.488 1.76,-3.616 3.472,-6.432 5.136,-8.448 0.384,0.064 0.848,0.224 1.392,0.48 0.576,0.256 1.136,0.544 1.68,0.864 0.544,0.288 1.024,0.592 1.44,0.912 0.448,0.32 0.736,0.576 0.864,0.768 -2.496,2.944 -4.688,6.112 -6.576,9.504 -1.888,3.392 -3.616,7.28 -5.184,11.664 -1.344,3.776 -2.368,7.184 -3.072,10.224 -0.704,3.008 -1.056,5.52 -1.056,7.536 0,0.544 0,0.88 0,1.008 0,0.128 0.016,0.256 0.048,0.384 -0.448,-0.064 -0.832,-0.176 -1.152,-0.336 -0.32,-0.16 -0.528,-0.352 -0.624,-0.576 -0.064,-0.16 -0.24,-0.4 -0.528,-0.72 -0.288,-0.288 -0.544,-0.512 -0.768,-0.672 -0.288,-0.192 -0.528,-0.688 -0.72,-1.488 -0.192,-0.832 -0.288,-1.76 -0.288,-2.784 z m 28.388,-16.8 c -0.128,1.984 -0.48,3.696 -1.056,5.136 -0.576,1.408 -1.408,2.656 -2.496,3.744 -1.056,1.056 -2.352,2.016 -3.888,2.88 -1.536,0.864 -3.328,1.696 -5.376,2.496 0,0.192 -0.016,0.4 -0.048,0.624 0,0.192 0,0.4 0,0.624 0,0.416 0.032,0.848 0.096,1.296 0.064,0.448 0.176,0.864 0.336,1.248 0.16,0.384 0.384,0.704 0.672,0.96 0.288,0.224 0.656,0.336 1.104,0.336 0.864,0 1.712,-0.192 2.544,-0.576 0.832,-0.384 1.616,-0.848 2.352,-1.392 0.768,-0.576 1.472,-1.184 2.112,-1.824 0.672,-0.672 1.264,-1.28 1.776,-1.824 0.32,0.288 0.592,0.56 0.816,0.816 -1.44,1.92 -3.024,3.52 -4.752,4.8 -1.696,1.248 -3.312,2.048 -4.848,2.4 -2.208,-0.256 -3.936,-1.056 -5.184,-2.4 -1.216,-1.376 -1.824,-3.024 -1.824,-4.944 0,-1.312 0.176,-2.64 0.528,-3.984 0.384,-1.376 0.896,-2.688 1.536,-3.936 0.672,-1.28 1.44,-2.48 2.304,-3.6 0.896,-1.12 1.84,-2.096 2.832,-2.928 1.024,-0.832 2.064,-1.488 3.12,-1.968 1.088,-0.48 2.16,-0.72 3.216,-0.72 1.472,0.192 2.848,1.104 4.128,2.736 z m -3.312,1.584 c -0.864,0.128 -1.76,0.48 -2.688,1.056 -0.928,0.576 -1.808,1.344 -2.64,2.304 -0.8,0.96 -1.536,2.08 -2.208,3.36 -0.672,1.28 -1.2,2.656 -1.584,4.128 2.56,-1.28 4.688,-2.848 6.384,-4.704 1.696,-1.888 2.608,-3.936 2.736,-6.144 z m 22.095,-0.816 c -0.032,0.608 -0.144,1.248 -0.336,1.92 -0.16,0.64 -0.368,1.232 -0.624,1.776 -0.256,0.512 -0.528,0.944 -0.816,1.296 -0.288,0.352 -0.56,0.528 -0.816,0.528 -0.352,-0.032 -0.56,-0.272 -0.624,-0.72 0,-0.096 0.032,-0.24 0.096,-0.432 0.096,-0.224 0.192,-0.464 0.288,-0.72 0.096,-0.256 0.176,-0.512 0.24,-0.768 0.096,-0.256 0.144,-0.48 0.144,-0.672 0,-0.448 -0.112,-0.816 -0.336,-1.104 -0.192,-0.32 -0.464,-0.48 -0.816,-0.48 -1.28,0 -2.256,0.8 -2.928,2.4 -0.672,1.6 -1.008,3.952 -1.008,7.056 0,0.32 0.016,0.512 0.048,0.576 0.672,-0.032 1.264,-0.048 1.776,-0.048 0.544,-0.032 1.072,-0.048 1.584,-0.048 0.032,0.064 0.048,0.192 0.048,0.384 0,0.288 -0.064,0.496 -0.192,0.624 -0.736,0.16 -1.328,0.304 -1.776,0.432 -0.416,0.096 -0.736,0.192 -0.96,0.288 -0.224,0.096 -0.368,0.208 -0.432,0.336 -0.032,0.096 -0.048,0.24 -0.048,0.432 0,0.256 0,0.512 0,0.768 0.032,0.256 0.048,0.576 0.048,0.96 0,2.688 -0.736,4.848 -2.208,6.48 -1.44,1.632 -3.456,2.576 -6.048,2.832 -0.448,-0.032 -0.912,-0.16 -1.392,-0.384 -0.48,-0.224 -0.944,-0.512 -1.392,-0.864 -0.416,-0.352 -0.784,-0.752 -1.104,-1.2 -0.32,-0.416 -0.544,-0.848 -0.672,-1.296 0,-1.216 0.256,-2.368 0.768,-3.456 0.512,-1.12 1.2,-2.096 2.064,-2.928 0.896,-0.864 1.936,-1.552 3.12,-2.064 1.216,-0.544 2.528,-0.864 3.936,-0.96 0,-0.8 -0.08,-1.584 -0.24,-2.352 -0.16,-0.768 -0.336,-1.504 -0.528,-2.208 -0.16,-0.736 -0.32,-1.44 -0.48,-2.112 -0.16,-0.704 -0.24,-1.392 -0.24,-2.064 0,-0.864 0.176,-1.712 0.528,-2.544 0.352,-0.864 0.816,-1.648 1.392,-2.352 0.576,-0.736 1.248,-1.36 2.016,-1.872 0.768,-0.512 1.568,-0.864 2.4,-1.056 0.352,0.096 0.816,0.384 1.392,0.864 0.608,0.448 1.2,0.96 1.776,1.536 0.576,0.576 1.088,1.168 1.536,1.776 0.448,0.576 0.72,1.056 0.816,1.44 z m -15.84,21.888 c 0.768,-0.32 1.488,-0.784 2.16,-1.392 0.704,-0.608 1.312,-1.296 1.824,-2.064 0.512,-0.768 0.912,-1.584 1.2,-2.448 0.32,-0.864 0.48,-1.712 0.48,-2.544 -0.64,0.096 -1.344,0.4 -2.112,0.912 -0.768,0.48 -1.488,1.072 -2.16,1.776 -0.672,0.672 -1.232,1.376 -1.68,2.112 -0.448,0.736 -0.672,1.376 -0.672,1.92 0,0.704 0.32,1.28 0.96,1.728 z m 32.433,-21.888 c -0.032,0.608 -0.144,1.248 -0.336,1.92 -0.16,0.64 -0.368,1.232 -0.624,1.776 -0.256,0.512 -0.528,0.944 -0.816,1.296 -0.288,0.352 -0.56,0.528 -0.816,0.528 -0.352,-0.032 -0.56,-0.272 -0.624,-0.72 0,-0.096 0.032,-0.24 0.096,-0.432 0.096,-0.224 0.192,-0.464 0.288,-0.72 0.096,-0.256 0.176,-0.512 0.24,-0.768 0.096,-0.256 0.144,-0.48 0.144,-0.672 0,-0.448 -0.112,-0.816 -0.336,-1.104 -0.192,-0.32 -0.464,-0.48 -0.816,-0.48 -1.28,0 -2.256,0.8 -2.928,2.4 -0.672,1.6 -1.008,3.952 -1.008,7.056 0,0.32 0.016,0.512 0.048,0.576 0.672,-0.032 1.264,-0.048 1.776,-0.048 0.544,-0.032 1.072,-0.048 1.584,-0.048 0.032,0.064 0.048,0.192 0.048,0.384 0,0.288 -0.064,0.496 -0.192,0.624 -0.736,0.16 -1.328,0.304 -1.776,0.432 -0.416,0.096 -0.736,0.192 -0.96,0.288 -0.224,0.096 -0.368,0.208 -0.432,0.336 -0.032,0.096 -0.048,0.24 -0.048,0.432 0,0.256 0,0.512 0,0.768 0.032,0.256 0.048,0.576 0.048,0.96 0,2.688 -0.736,4.848 -2.208,6.48 -1.44,1.632 -3.456,2.576 -6.048,2.832 -0.448,-0.032 -0.912,-0.16 -1.392,-0.384 -0.48,-0.224 -0.944,-0.512 -1.392,-0.864 -0.416,-0.352 -0.784,-0.752 -1.104,-1.2 -0.32,-0.416 -0.544,-0.848 -0.672,-1.296 0,-1.216 0.256,-2.368 0.768,-3.456 0.512,-1.12 1.2,-2.096 2.064,-2.928 0.896,-0.864 1.936,-1.552 3.12,-2.064 1.216,-0.544 2.528,-0.864 3.936,-0.96 0,-0.8 -0.08,-1.584 -0.24,-2.352 -0.16,-0.768 -0.336,-1.504 -0.528,-2.208 -0.16,-0.736 -0.32,-1.44 -0.48,-2.112 -0.16,-0.704 -0.24,-1.392 -0.24,-2.064 0,-0.864 0.176,-1.712 0.528,-2.544 0.352,-0.864 0.816,-1.648 1.392,-2.352 0.576,-0.736 1.248,-1.36 2.016,-1.872 0.768,-0.512 1.568,-0.864 2.4,-1.056 0.352,0.096 0.816,0.384 1.392,0.864 0.608,0.448 1.2,0.96 1.776,1.536 0.576,0.576 1.088,1.168 1.536,1.776 0.448,0.576 0.72,1.056 0.816,1.44 z m -15.84,21.888 c 0.768,-0.32 1.488,-0.784 2.16,-1.392 0.704,-0.608 1.312,-1.296 1.824,-2.064 0.512,-0.768 0.912,-1.584 1.2,-2.448 0.32,-0.864 0.48,-1.712 0.48,-2.544 -0.64,0.096 -1.344,0.4 -2.112,0.912 -0.768,0.48 -1.488,1.072 -2.16,1.776 -0.672,0.672 -1.232,1.376 -1.68,2.112 -0.448,0.736 -0.672,1.376 -0.672,1.92 0,0.704 0.32,1.28 0.96,1.728 z"
       fill="#ffffff"
       id="path34" />
  </g>
  <defs
     id="defs53">
    <inkscape:path-effect
       effect="offset"
       id="path-effect7969"
       is_visible="true"
       lpeversion="1"
       linejoin_type="miter"
       unit="mm"
       offset="0.4"
       miter_limit="4"
       attempt_force_join="false"
       update_on_knot_move="true" />
    <inkscape:path-effect
       effect="offset"
       id="path-effect7965"
       is_visible="true"
       lpeversion="1"
       linejoin_type="miter"
       unit="mm"
       offset="0.3"
       miter_limit="4"
       attempt_force_join="false"
       update_on_knot_move="true" />
    <inkscape:path-effect
       effect="offset"
       id="path-effect7961"
       is_visible="true"
       lpeversion="1"
       linejoin_type="miter"
       unit="mm"
       offset="0.4"
       miter_limit="4"
       attempt_force_join="false"
       update_on_knot_move="true" />
    <filter
       id="filter0_d"
       x="1.09801"
       y="12.16"
       width="204.274"
       height="52.832"
       filterUnits="userSpaceOnUse"
       color-interpolation-filters="sRGB">
      <feFlood
         flood-opacity="0"
         result="BackgroundImageFix"
         id="feFlood38" />
      <feColorMatrix
         in="SourceAlpha"
         type="matrix"
         values="0 0 0 0 0 0 0 0 0 0 0 0 0 0 0 0 0 0 127 0"
         id="feColorMatrix40" />
      <feOffset
         dy="4"
         id="feOffset42" />
      <feGaussianBlur
         stdDeviation="2"
         id="feGaussianBlur44" />
      <feColorMatrix
         type="matrix"
         values="0 0 0 0 0 0 0 0 0 0 0 0 0 0 0 0 0 0 0.25 0"
         id="feColorMatrix46" />
      <feBlend
         mode="normal"
         in2="BackgroundImageFix"
         result="effect1_dropShadow"
         id="feBlend48" />
      <feBlend
         mode="normal"
         in="SourceGraphic"
         in2="effect1_dropShadow"
         result="shape"
         id="feBlend50" />
    </filter>
    <filter
       inkscape:collect="always"
       style="color-interpolation-filters:sRGB"
       id="filter1340"
       x="-0.032459229"
       y="-0.14316362"
       width="1.0649185"
       height="1.2863272">
      <feGaussianBlur
         inkscape:collect="always"
         stdDeviation="1.7050787"
         id="feGaussianBlur1342" />
    </filter>
  </defs>
  <text
     xml:space="preserve"
     style="font-style:normal;font-variant:normal;font-weight:normal;font-stretch:normal;font-size:24px;line-height:1.25;font-family:'Kaushan Script';-inkscape-font-specification:'Kaushan Script, Normal';font-variant-ligatures:none;font-variant-caps:normal;font-variant-numeric:normal;font-variant-east-asian:normal;fill:#000000"
     x="17.75"
     y="127.5"
     id="text9968"><tspan
       sodipodi:role="line"
       id="tspan9966"
       x="17.75"
       y="127.5">SystemClean</tspan></text>
  <text
     xml:space="preserve"
     style="font-style:normal;font-variant:normal;font-weight:normal;font-stretch:normal;font-size:24px;line-height:1.25;font-family:'Kaushan Script';-inkscape-font-specification:'Kaushan Script, Normal';font-variant-ligatures:none;font-variant-caps:normal;font-variant-numeric:normal;font-variant-east-asian:normal;fill:#e6e6e6"
     x="18"
     y="128"
     id="text134"><tspan
       sodipodi:role="line"
       id="tspan132"
       x="18"
       y="128">SystemClean</tspan></text>
  <text
     xml:space="preserve"
     style="font-style:normal;font-variant:normal;font-weight:normal;font-stretch:normal;font-size:24px;line-height:1.25;font-family:'Kaushan Script';-inkscape-font-specification:'Kaushan Script, Normal';font-variant-ligatures:none;font-variant-caps:normal;font-variant-numeric:normal;font-variant-east-asian:normal;fill:#000000"
     x="16.165171"
     y="172.12801"
     id="text9968-0"><tspan
       sodipodi:role="line"
       id="tspan9966-4"
       x="16.165171"
       y="172.12801">SystemClean</tspan></text>
  <g
     id="g1402"
     transform="matrix(1.31704,0,0,1.5153744,9.0740024,-300.1216)">
    <text
       xml:space="preserve"
       style="font-style:normal;font-variant:normal;font-weight:normal;font-stretch:normal;font-size:24px;line-height:1.25;font-family:'Kaushan Script';-inkscape-font-specification:'Kaushan Script, Normal';font-variant-ligatures:none;font-variant-caps:normal;font-variant-numeric:normal;font-variant-east-asian:normal;fill:#000000;filter:url(#filter1340)"
       x="5.2901688"
       y="229.87801"
       id="text9968-0-4"><tspan
         sodipodi:role="line"
         id="tspan9966-4-5"
         x="5.2901688"
         y="229.87801">SystemClean</tspan></text>
    <text
       xml:space="preserve"
       style="font-style:normal;font-variant:normal;font-weight:normal;font-stretch:normal;font-size:24px;line-height:1.25;font-family:'Kaushan Script';-inkscape-font-specification:'Kaushan Script, Normal';font-variant-ligatures:none;font-variant-caps:normal;font-variant-numeric:normal;font-variant-east-asian:normal;fill:#f2f2f2"
       x="5.5401688"
       y="228.00301"
       id="text134-2-4"><tspan
         sodipodi:role="line"
         id="tspan132-9-5"
         x="5.5401688"
         y="228.00301">SystemClean</tspan></text>
  </g>
  <text
     xml:space="preserve"
     style="font-style:normal;font-variant:normal;font-weight:normal;font-stretch:normal;font-size:24px;line-height:1.25;font-family:'Kaushan Script';-inkscape-font-specification:'Kaushan Script, Normal';font-variant-ligatures:none;font-variant-caps:normal;font-variant-numeric:normal;font-variant-east-asian:normal;fill:#e6e6e6"
     x="15.790171"
     y="171.62801"
     id="text134-2"><tspan
       sodipodi:role="line"
       id="tspan132-9"
       x="15.790171"
       y="171.62801">SystemClean</tspan></text>
</svg>
